<?xml version="1.0" standalone="no"?>
<!DOCTYPE svg PUBLIC "-//W3C//DTD SVG 20010904//EN"
 "http://www.w3.org/TR/2001/REC-SVG-20010904/DTD/svg10.dtd">
<svg version="1.0" xmlns="http://www.w3.org/2000/svg"
 width="2000.000000pt" height="2000.000000pt" viewBox="0 0 2000.000000 2000.000000"
 preserveAspectRatio="xMidYMid meet">
<metadata>
Created by potrace 1.14, written by Peter Selinger 2001-2017
</metadata>
<g transform="translate(0.000000,2000.000000) scale(0.100000,-0.100000)"
fill="#000000" stroke="none">
<path d="M9679 18745 c-2 -2 -71 -6 -154 -10 -82 -3 -168 -8 -190 -10 -221
-18 -204 -16 -400 -40 -135 -16 -156 -19 -265 -36 -137 -21 -217 -35 -310 -54
-14 -2 -41 -7 -60 -10 -19 -3 -42 -8 -50 -10 -8 -2 -26 -6 -40 -9 -14 -2 -64
-13 -112 -25 -86 -20 -103 -24 -161 -36 -74 -15 -452 -120 -582 -162 -212 -68
-563 -196 -680 -249 -16 -7 -52 -22 -80 -33 -27 -10 -72 -30 -100 -42 -27 -13
-52 -24 -55 -24 -31 -6 -626 -303 -671 -336 -15 -10 -30 -19 -33 -19 -4 0 -84
-46 -178 -102 -95 -57 -189 -113 -210 -126 -42 -24 -402 -266 -421 -283 -7 -5
-57 -42 -112 -81 -55 -39 -102 -74 -105 -78 -3 -3 -32 -26 -65 -50 -33 -24
-62 -47 -65 -51 -3 -3 -27 -24 -55 -45 -27 -21 -55 -42 -61 -48 -7 -6 -29 -24
-50 -41 -20 -16 -47 -39 -58 -50 -12 -11 -68 -60 -126 -110 -239 -204 -582
-547 -800 -800 -88 -101 -140 -161 -165 -189 -5 -6 -28 -34 -50 -61 -21 -28
-42 -52 -45 -55 -8 -8 -87 -112 -183 -240 -48 -63 -90 -119 -95 -125 -4 -5
-37 -53 -72 -105 -36 -52 -67 -97 -70 -100 -7 -7 -122 -181 -136 -205 -6 -11
-47 -80 -92 -153 -45 -73 -82 -135 -82 -137 0 -3 -8 -18 -19 -33 -59 -86 -341
-629 -341 -656 0 -8 -3 -16 -8 -18 -8 -3 -110 -231 -162 -363 -17 -44 -36 -89
-41 -100 -30 -69 -96 -247 -153 -415 -58 -168 -191 -612 -202 -675 -2 -11 -24
-109 -48 -215 -39 -173 -73 -336 -81 -395 -2 -11 -6 -33 -9 -50 -16 -90 -36
-217 -41 -264 -4 -30 -9 -63 -11 -75 -2 -12 -6 -43 -9 -71 -6 -64 -15 -143
-20 -175 -4 -30 -16 -169 -20 -225 -1 -22 -6 -107 -11 -190 -16 -268 -9 -946
11 -1155 2 -19 6 -73 10 -120 4 -47 8 -96 11 -110 2 -14 6 -56 10 -95 3 -38 7
-77 9 -85 2 -8 7 -42 10 -75 4 -33 8 -67 10 -75 2 -8 7 -37 10 -65 3 -27 10
-70 15 -95 5 -25 12 -61 15 -80 6 -40 12 -75 25 -145 5 -27 12 -66 15 -85 7
-40 57 -266 79 -355 8 -33 23 -96 34 -140 53 -215 194 -666 266 -848 15 -37
38 -97 52 -134 14 -38 32 -80 40 -95 8 -16 13 -28 10 -28 -4 0 8 -28 69 -165
7 -16 25 -59 40 -95 67 -163 328 -668 433 -840 11 -19 27 -46 35 -60 32 -58
58 -101 117 -195 66 -105 241 -366 251 -375 3 -3 20 -27 39 -55 76 -113 287
-385 397 -512 25 -29 54 -65 66 -80 12 -16 28 -35 37 -43 8 -8 42 -46 75 -85
157 -185 534 -562 734 -735 35 -30 77 -66 92 -80 15 -14 47 -41 70 -60 23 -19
49 -42 58 -50 33 -32 320 -257 436 -341 215 -157 523 -358 717 -470 40 -23
116 -67 168 -97 52 -30 185 -100 295 -157 199 -102 304 -151 538 -254 38 -16
208 -84 391 -156 202 -79 717 -238 921 -285 44 -10 132 -30 195 -45 63 -15
122 -28 130 -30 8 -1 31 -5 50 -9 19 -3 46 -9 60 -12 46 -10 180 -34 215 -39
11 -2 33 -6 49 -9 16 -3 50 -8 75 -12 25 -4 55 -8 66 -10 23 -4 224 -30 305
-39 30 -4 66 -8 80 -10 14 -2 66 -7 115 -11 50 -3 106 -8 125 -10 233 -20 907
-26 1150 -11 202 13 329 23 405 32 110 13 133 15 175 20 25 3 65 8 90 11 25 3
56 7 70 9 14 3 54 9 90 14 36 6 90 14 120 20 30 5 71 12 90 16 41 7 138 24
177 31 16 3 69 14 118 25 50 12 97 22 105 24 283 62 587 147 885 249 159 54
282 98 320 115 11 5 58 24 105 42 47 18 117 47 157 65 39 18 74 30 77 26 3 -3
6 0 6 6 0 7 6 12 14 12 44 0 639 300 901 455 110 65 210 123 222 129 13 6 23
14 23 19 0 4 5 7 10 7 8 0 306 195 355 232 6 4 82 60 170 124 134 98 388 295
405 314 3 4 37 33 75 65 39 32 75 64 81 69 6 6 39 36 74 66 246 213 636 610
817 830 15 19 35 42 43 51 70 76 136 158 283 349 53 69 104 136 115 150 47 61
280 405 340 503 386 622 671 1225 893 1887 90 271 200 667 244 880 39 191 55
271 60 300 3 19 10 58 15 85 5 28 12 66 15 85 3 19 10 60 15 90 5 30 12 79 15
109 4 30 9 63 11 75 2 12 7 46 10 76 10 96 12 114 18 165 45 383 56 1205 21
1575 -2 19 -6 71 -10 115 -4 44 -8 94 -10 110 -2 17 -6 57 -9 90 -4 33 -8 74
-11 90 -2 17 -7 53 -10 80 -4 28 -8 61 -11 74 -2 13 -6 45 -9 70 -3 25 -10 66
-15 91 -5 25 -11 59 -14 75 -11 83 -54 304 -86 445 -12 52 -23 102 -25 110 -1
8 -8 33 -13 55 -6 22 -13 51 -16 65 -28 133 -186 660 -227 755 -4 11 -15 40
-23 65 -15 48 -101 272 -116 305 -5 11 -25 58 -44 105 -120 299 -280 619 -526
1055 -12 22 -29 48 -39 59 -9 10 -14 19 -12 20 2 0 -13 30 -35 65 -41 68 -315
481 -333 503 -6 7 -44 58 -83 113 -40 55 -78 107 -85 115 -16 21 -148 187
-186 235 -32 39 -65 78 -164 191 -28 32 -69 79 -90 104 -75 88 -171 188 -338
355 -210 210 -293 288 -466 435 -29 25 -73 63 -99 85 -25 22 -64 54 -85 72
-112 89 -215 171 -245 193 -64 49 -105 80 -117 90 -7 5 -17 10 -22 10 -6 0
-14 6 -18 13 -9 13 -47 40 -303 212 -598 402 -1316 755 -2023 994 -186 63
-602 186 -667 198 -14 2 -43 9 -65 15 -22 5 -47 12 -55 13 -8 2 -87 19 -175
39 -88 19 -173 37 -190 40 -16 2 -84 14 -150 26 -112 20 -184 31 -280 45 -22
3 -53 7 -70 10 -16 2 -51 7 -77 10 -27 3 -67 7 -90 10 -129 14 -216 22 -333
30 -44 3 -107 8 -140 11 -73 6 -831 15 -836 9z m-3841 -4556 c-1790 -1790
-3262 -3261 -3273 -3269 -10 -8 -16 -10 -13 -5 6 10 13 48 23 140 4 28 10 75
15 105 5 30 12 71 15 90 15 94 29 166 56 290 16 74 31 144 33 155 3 11 14 58
25 105 12 47 23 94 26 105 41 198 254 815 366 1060 13 28 24 52 24 55 5 33
252 526 330 659 36 62 65 114 65 116 0 8 154 251 172 271 10 11 18 24 18 29 0
8 47 82 60 95 3 3 25 34 50 70 24 36 48 66 52 68 4 2 8 8 8 13 0 6 5 15 10 22
6 7 40 53 76 102 35 50 72 99 82 110 9 11 45 56 79 100 150 191 329 390 547
609 218 218 279 276 426 401 58 49 107 92 110 95 3 3 34 28 70 55 36 28 67 53
70 56 8 9 262 199 300 225 19 13 58 39 85 59 84 60 155 105 165 105 6 0 10 3
10 8 0 4 20 18 45 32 25 14 45 28 45 32 0 5 5 8 11 8 6 0 30 14 54 30 24 17
48 30 53 30 6 0 12 4 14 8 3 7 146 91 173 101 5 2 17 9 25 16 52 45 657 333
895 427 233 92 657 234 757 253 9 2 27 9 40 16 13 7 24 11 26 10 1 -1 28 3 60
10 31 7 62 13 67 15 6 1 48 11 95 22 167 41 249 57 525 107 17 3 53 8 80 11
28 4 84 12 125 18 41 7 76 11 78 10 2 -1 -1461 -1466 -3250 -3255z m5142 3246
c8 -2 44 -6 80 -10 36 -4 67 -8 70 -10 3 -2 29 -6 59 -10 30 -4 63 -9 75 -11
12 -2 46 -8 76 -14 71 -13 94 -18 155 -30 28 -6 59 -12 70 -14 39 -8 202 -47
300 -72 55 -14 107 -28 115 -29 8 -2 15 -4 15 -5 0 -1 7 -3 15 -5 8 -1 35 -8
60 -16 25 -7 50 -14 55 -15 15 -4 160 -50 243 -77 l73 -24 -4767 -4767 -4767
-4767 -35 103 c-111 333 -210 739 -272 1118 -31 191 -36 227 -45 320 -4 30 -8
63 -11 72 -4 13 -1 16 10 12 9 -3 16 -11 16 -16 0 -6 1866 1856 4147 4136
l4147 4147 50 -6 c28 -4 58 -9 66 -10z m2830 -977 c123 -72 451 -281 484 -310
6 -4 76 -57 156 -116 80 -59 202 -154 273 -211 l127 -104 -5282 -5283 c-2905
-2906 -5285 -5281 -5289 -5279 -9 6 -224 275 -272 340 -20 28 -40 55 -44 60
-117 151 -297 421 -421 631 l-89 151 5101 5105 c2805 2807 5103 5103 5106
5102 3 -1 70 -39 150 -86z m1960 -1668 c4 -3 42 -50 85 -105 43 -55 85 -107
92 -115 57 -63 383 -536 437 -635 9 -16 37 -63 61 -103 25 -41 45 -78 45 -83
0 -5 4 -9 9 -9 5 0 11 -8 15 -17 3 -10 8 -23 11 -29 5 -10 -10199 -10224
-10214 -10224 -3 0 -17 9 -31 20 -14 11 -28 20 -32 20 -36 1 -757 483 -844
564 -7 6 -63 51 -126 101 l-114 89 5286 5286 c5028 5028 5286 5285 5299 5265
8 -11 18 -22 21 -25z m1438 -2705 c23 -76 127 -491 136 -540 2 -16 14 -75 25
-130 11 -55 22 -116 25 -135 15 -92 35 -230 41 -275 3 -27 7 -61 9 -75 2 -14
7 -46 11 -72 l6 -47 -4133 -4134 c-3078 -3079 -4138 -4134 -4153 -4132 -11 2
-49 6 -85 10 -36 4 -74 9 -85 10 -11 2 -40 7 -65 10 -326 45 -658 117 -1080
236 -19 5 -39 11 -45 12 -5 1 -72 23 -148 47 l-137 44 4777 4778 4778 4778 51
-157 c28 -87 61 -189 72 -228z m216 -3147 c-8 -45 -16 -106 -20 -137 -3 -31
-8 -58 -9 -61 -2 -3 -6 -26 -10 -50 -6 -44 -27 -149 -47 -240 -5 -25 -11 -56
-14 -70 -3 -14 -14 -61 -25 -105 -12 -44 -23 -89 -25 -100 -7 -33 -13 -58 -24
-100 -6 -22 -12 -47 -15 -56 -44 -187 -233 -730 -324 -934 -5 -11 -18 -40 -29
-65 -27 -59 -76 -167 -120 -260 -19 -41 -36 -77 -37 -80 0 -3 -9 -21 -19 -40
-10 -19 -46 -87 -79 -150 -33 -63 -81 -151 -106 -195 -26 -44 -50 -87 -54 -95
-4 -8 -13 -24 -19 -35 -7 -10 -44 -69 -83 -130 -38 -60 -73 -111 -77 -113 -5
-2 -8 -9 -8 -16 0 -7 -10 -26 -22 -43 -13 -17 -29 -39 -36 -50 -55 -81 -209
-294 -259 -358 -124 -161 -186 -240 -192 -245 -3 -3 -21 -23 -40 -45 -211
-251 -550 -596 -776 -792 -66 -58 -133 -117 -150 -132 -16 -15 -82 -67 -145
-116 -63 -49 -119 -93 -125 -98 -5 -4 -44 -33 -85 -62 -41 -30 -80 -59 -87
-65 -7 -5 -16 -10 -22 -10 -5 0 -11 -4 -13 -8 -6 -16 -381 -264 -498 -330 -19
-11 -75 -43 -125 -72 -287 -168 -786 -399 -1135 -527 -168 -61 -550 -183 -621
-198 -9 -2 -63 -15 -120 -29 -126 -31 -361 -83 -409 -91 -19 -3 -42 -8 -50
-10 -16 -4 -19 -5 -245 -39 l-150 -23 3229 3229 c1776 1775 3229 3228 3231
3228 1 0 -4 -37 -11 -82z"/>
</g>
</svg>
